PathFileType	3	(X/Y/Z)	D:\VICON_DB\Goncalves\Pilot01\09-03-2026\static_01.trc
DataRate	CameraRate	NumFrames	NumMarkers	Units	OrigDataRate	OrigDataStartFrame	OrigNumFrames
200.0	200.0	7	40	mm	200.0	281	321
Frame#	Time	LASI			RASI			LPSI			RPSI			LTHI			LTHAP			LTHAD			LKNE			LKNM			LTIB			LTIAP			LTIAD			LANK			LMED			LHEE			LTOE			LFMH			LSMH			LVMH			RTHI			RTHAP			RTHAD			RKNE			RKNM			RTIB			RTIAP			RTIAD			RANK			RMED			RHEE			RTOE			RFMH			RSMH			RVMH			RHJC			LHJC			RKJC			LKJC			RAJC			LAJC
		X1	Y1	Z1	X2	Y2	Z2	X3	Y3	Z3	X4	Y4	Z4	X5	Y5	Z5	X6	Y6	Z6	X7	Y7	Z7	X8	Y8	Z8	X9	Y9	Z9	X10	Y10	Z10	X11	Y11	Z11	X12	Y12	Z12	X13	Y13	Z13	X14	Y14	Z14	X15	Y15	Z15	X16	Y16	Z16	X17	Y17	Z17	X18	Y18	Z18	X19	Y19	Z19	X20	Y20	Z20	X21	Y21	Z21	X22	Y22	Z22	X23	Y23	Z23	X24	Y24	Z24	X25	Y25	Z25	X26	Y26	Z26	X27	Y27	Z27	X28	Y28	Z28	X29	Y29	Z29	X30	Y30	Z30	X31	Y31	Z31	X32	Y32	Z32	X33	Y33	Z33	X34	Y34	Z34	X35	Y35	Z35	X36	Y36	Z36	X37	Y37	Z37	X38	Y38	Z38	X39	Y39	Z39	X40	Y40	Z40
281	1.400000	113.233840	902.945310	-1062.594100	107.775660	903.399350	-1327.555700	305.575010	960.750060	-1166.380000	302.557460	954.863220	-1229.172700	121.494740	693.263490	-1030.628300	138.532270	767.171330	-1017.020000	166.110000	629.470520	-1006.871900	219.719160	474.670810	-1023.726600	195.951580	464.666440	-1151.832300	257.820130	281.660740	-1004.327300	200.081800	357.100310	-1059.323600	215.900150	254.709590	-1032.051500	272.742430	70.350777	-1027.526000	239.382770	81.106537	-1107.787100	314.826720	62.024090	-1080.766800	191.160630	71.796272	-1047.323500	133.959110	44.929646	-1072.862700	133.648470	39.201218	-1032.726800	149.221940	25.572374	-992.737370	153.861530	625.626340	-1379.859100	116.449940	751.307920	-1355.940100	101.331750	659.433900	-1333.498900	203.304920	490.331020	-1363.712300	202.285660	433.586180	-1243.619400	224.605090	296.143920	-1382.719700	185.001540	345.847990	-1327.606300	191.236650	264.492950	-1330.491900	268.988340	62.249916	-1355.697000	233.609020	89.693123	-1275.855600	304.969910	58.175671	-1313.975800	176.548750	68.951393	-1340.196200	126.064160	49.212860	-1315.151100	123.822280	40.497875	-1351.278100	139.826320	20.598145	-1388.903200	189.077766	832.130703	-1291.591482	192.980859	831.806023	-1102.119944	202.795290	461.958600	-1303.665850	207.835370	469.668625	-1087.779450	251.298680	75.971519	-1315.776300	256.062600	75.728657	-1067.656550
282	1.405000	113.175770	902.925170	-1062.574200	107.712130	903.380680	-1327.558300	305.416990	960.742070	-1166.630000	302.519560	954.865360	-1229.172500	121.472960	693.245480	-1030.615000	138.499180	767.152340	-1017.023300	166.076390	629.456360	-1006.866100	219.707060	474.650510	-1023.732900	195.931930	464.669650	-1151.828200	257.799960	281.655850	-1004.332300	200.082110	357.105620	-1059.295400	215.903470	254.709090	-1032.039600	272.668180	70.355064	-1027.445700	239.390120	81.123970	-1107.793100	314.852810	62.011341	-1080.769300	191.131150	71.796829	-1047.347700	133.947940	44.918613	-1072.877200	133.650330	39.185501	-1032.712500	149.225600	25.553242	-992.734860	153.783980	625.609920	-1379.869900	116.410450	751.283080	-1355.909300	101.269390	659.421940	-1333.490400	203.239040	490.332550	-1363.727100	202.247960	433.618500	-1243.616700	224.576630	296.122380	-1382.711500	185.004780	345.826110	-1327.586200	191.213470	264.485230	-1330.490100	268.993930	62.238415	-1355.690300	233.608800	89.693489	-1275.845600	304.978060	58.159561	-1313.948900	176.568860	68.964279	-1340.189300	126.076870	49.192982	-1315.117300	123.816740	40.496216	-1351.280200	139.802220	20.612263	-1388.962900	189.018878	832.113388	-1291.592233	192.925850	831.787660	-1102.105852	202.743500	461.975525	-1303.671900	207.819495	469.660080	-1087.780550	251.301365	75.965952	-1315.767950	256.029150	75.739517	-1067.619400
283	1.410000	113.126590	902.915890	-1062.562100	107.613270	903.357730	-1327.584800	305.196010	960.718020	-1166.590000	302.435330	954.876950	-1229.183600	121.449170	693.234920	-1030.591400	138.685970	766.887510	-1017.218700	166.047210	629.443540	-1006.858500	219.695330	474.630490	-1023.730800	195.892070	464.668270	-1151.845000	257.799440	281.640690	-1004.323700	199.973140	356.924840	-1059.376700	215.904850	254.687610	-1032.028000	272.893950	70.374870	-1027.256700	239.159000	81.139725	-1107.983300	314.838590	62.009476	-1080.736800	191.156360	71.778015	-1047.308500	133.964980	44.914112	-1072.861500	133.642040	39.179348	-1032.707900	149.236100	25.527615	-992.744260	153.571000	625.857910	-1379.975100	116.376430	751.262700	-1355.876500	101.230470	659.431270	-1333.474400	203.217350	490.317840	-1363.713300	202.199980	433.573940	-1243.612500	224.602490	296.117770	-1382.684300	184.968920	345.855220	-1327.565200	191.203290	264.473020	-1330.488300	268.997890	62.248985	-1355.681800	233.606000	89.676857	-1275.842000	304.979580	58.161003	-1313.947800	176.574510	68.951042	-1340.185900	126.103710	49.178936	-1315.095600	123.816800	40.484749	-1351.273400	139.792250	20.586071	-1388.944000	188.924188	832.088621	-1291.623253	192.866640	831.772671	-1102.111449	202.708665	461.945890	-1303.662900	207.793700	469.649380	-1087.787900	251.301945	75.962921	-1315.761900	256.026475	75.757297	-1067.620000
284	1.415000	113.070000	902.895870	-1062.554200	107.552440	903.333500	-1327.561600	304.639010	960.660030	-1167.450000	302.354830	954.869380	-1229.189300	121.413350	693.221620	-1030.579800	138.651230	766.878480	-1017.217700	166.025130	629.415280	-1006.855500	219.669480	474.613680	-1023.734200	195.870570	464.659450	-1151.829800	257.790220	281.628020	-1004.328100	200.018010	357.053410	-1059.399700	215.896820	254.695180	-1032.023900	272.894040	70.357803	-1027.259800	239.168690	81.129242	-1107.984000	314.849950	61.995609	-1080.739400	191.134140	71.816246	-1047.302500	133.957980	44.914482	-1072.859000	133.634890	39.169369	-1032.703400	149.228880	25.519964	-992.741330	153.691820	625.591670	-1379.837000	116.347630	751.243650	-1355.827400	101.045010	659.473880	-1333.636800	203.195140	490.304840	-1363.698400	202.161870	433.521120	-1243.603000	224.561450	296.097720	-1382.700000	184.951170	345.828370	-1327.564300	191.205140	264.457120	-1330.454300	268.994050	62.238651	-1355.687600	233.608080	89.675491	-1275.841800	304.991060	58.140198	-1313.907800	176.524980	68.968147	-1340.184000	126.092830	49.169502	-1315.103100	123.808720	40.485889	-1351.270500	139.792590	20.614958	-1388.951900	188.826098	832.076229	-1291.602105	192.771600	831.763288	-1102.100405	202.678505	461.912980	-1303.650700	207.770025	469.636565	-1087.782000	251.301065	75.957071	-1315.764700	256.031365	75.743523	-1067.621900
285	1.420000	113.011720	902.864320	-1062.543100	107.472730	903.300480	-1327.547200	304.346040	960.638980	-1167.800000	302.269470	954.871090	-1229.210000	121.381950	693.203490	-1030.563700	138.604170	766.862240	-1017.212200	166.002780	629.405030	-1006.845100	219.651760	474.609190	-1023.738000	195.853010	464.647400	-1151.821400	257.782560	281.620570	-1004.328200	200.004440	357.060850	-1059.398600	215.890060	254.688570	-1032.024300	273.067500	70.250114	-1027.331800	239.363020	81.117203	-1107.815600	314.860840	61.980339	-1080.731100	191.113820	71.776848	-1047.341800	133.946930	44.891998	-1072.857700	133.635880	39.158401	-1032.711200	149.226230	25.508272	-992.741090	153.654910	625.589110	-1379.825900	116.274100	751.245670	-1355.830800	100.980030	659.472230	-1333.658600	203.172150	490.301450	-1363.702400	202.188170	433.527250	-1243.631600	224.566360	296.102360	-1382.670700	184.937180	345.788640	-1327.579200	191.186280	264.453740	-1330.464500	268.986270	62.246185	-1355.690900	233.604230	89.670921	-1275.828900	304.976100	58.139385	-1313.929000	176.534290	68.928505	-1340.177000	126.102070	49.150429	-1315.075000	123.816550	40.471527	-1351.270800	139.751950	20.668335	-1388.996300	188.743380	832.058588	-1291.594239	192.704209	831.746698	-1102.094741	202.680160	461.914350	-1303.667000	207.752385	469.628295	-1087.779700	251.295250	75.958553	-1315.759900	256.215260	75.683659	-1067.573700
286	1.425000	112.967690	902.864810	-1062.531400	107.421390	903.269170	-1327.521200	304.452000	960.710020	-1167.740000	302.218840	954.872310	-1229.210800	121.347040	693.194890	-1030.558300	138.577500	766.855900	-1017.192900	165.976330	629.394590	-1006.838700	219.629880	474.608700	-1023.727500	195.823270	464.638820	-1151.816800	257.764010	281.627350	-1004.333500	199.996120	357.054990	-1059.384000	215.888050	254.682130	-1032.019900	272.912050	70.354134	-1027.273600	239.366490	81.100998	-1107.799200	314.836820	61.999031	-1080.743500	191.111010	71.770905	-1047.342500	133.954760	44.892014	-1072.861100	133.625140	39.144878	-1032.714500	149.227860	25.499065	-992.747190	153.633120	625.537110	-1379.788600	116.261510	751.208370	-1355.765300	100.948090	659.415590	-1333.614600	203.139760	490.270690	-1363.695200	202.138640	433.598450	-1243.592400	224.567630	296.109680	-1382.633400	184.921520	345.789430	-1327.551300	191.182330	264.452000	-1330.459800	268.981720	62.222973	-1355.665300	233.585830	89.671227	-1275.826300	304.976780	58.151169	-1313.922200	176.533600	68.910706	-1340.171100	126.080510	49.144634	-1315.112100	123.813580	40.461159	-1351.279700	139.618770	20.657030	-1389.119900	188.722290	832.053211	-1291.565021	192.688362	831.764059	-1102.074967	202.639200	461.934570	-1303.643800	207.726575	469.623760	-1087.772150	251.283775	75.947100	-1315.745800	256.139270	75.727566	-1067.536400
287	1.430000	112.906920	902.858760	-1062.525600	107.369390	903.260310	-1327.481600	304.622010	960.712040	-1167.260000	302.125240	954.849910	-1229.222200	121.307220	693.184880	-1030.554100	138.558180	766.831970	-1017.169600	165.954100	629.395020	-1006.829700	219.605880	474.607670	-1023.732100	195.805010	464.631470	-1151.814100	257.733760	281.636510	-1004.319000	199.983200	357.062100	-1059.379000	215.866170	254.678410	-1032.029300	272.685000	70.321060	-1027.455700	239.363020	81.113716	-1107.800300	314.844180	61.995243	-1080.747800	191.094360	71.813339	-1047.309400	133.942930	44.892059	-1072.859100	133.633650	39.149956	-1032.705400	149.228120	25.510479	-992.734500	153.588880	625.508000	-1379.784900	116.246860	751.155880	-1355.742400	100.901460	659.417480	-1333.630400	203.116260	490.271120	-1363.685500	202.114380	433.512050	-1243.617300	224.537550	296.094880	-1382.640300	184.904070	345.782590	-1327.564100	191.159150	264.432530	-1330.461500	268.980960	62.217506	-1355.674400	233.598940	89.661530	-1275.831200	304.980800	58.141571	-1313.918200	176.515960	68.907867	-1340.171400	126.092940	49.137070	-1315.091200	123.811060	40.460724	-1351.265700	139.759140	20.634535	-1388.961900	188.676805	832.049442	-1291.528136	192.636645	831.762297	-1102.060381	202.615320	461.891585	-1303.651400	207.705445	469.619570	-1087.773100	251.289950	75.939518	-1315.752800	256.024010	75.717388	-1067.628000
